<svg width="30" height="30" fill="none" xmlns="http://www.w3.org/2000/svg">
	<path d="M20.82 5.52l.297-4.042-2.952 2.743.741 1.888 1.914-.59zM15.868 22.698a7.797 7.797 0 10-2.495-15.393 7.797 7.797 0 002.495 15.393zM10.343 6.109l.736-1.875-2.963-2.749.301 4.03 1.926.594zM16.87 5.718L14.625 0l-2.246 5.718a9.537 9.537 0 014.492 0zM29.249 18.338l-5.076-3.463.001.125a9.49 9.49 0 01-1.002 4.255l6.077-.917zM23.281 10.97l3.071-5.322-5.876 1.81a9.607 9.607 0 012.805 3.512zM24.245 12.804l1.656 1.13 3.344-2.287-3.987-.598-1.012 1.755zM13.152 26.234L14.634 30l1.473-3.757-1.482-1.375-1.473 1.366zM8.116 28.515l4.505-4.178a9.52 9.52 0 01-4.047-1.954l-.458 6.132zM16.628 24.337l4.505 4.178-.458-6.132a9.52 9.52 0 01-4.047 1.954zM22.34 21.153l.15 2 3.87 1.19-2.019-3.492-2 .302zM8.773 7.458l-5.876-1.81 3.071 5.322a9.61 9.61 0 012.805-3.512zM5.004 12.804l-1.006-1.743L0 11.665l3.337 2.276 1.667-1.137zM2.901 24.357l3.858-1.19.15-2.014-1.988-.3-2.02 3.504zM5.075 15l.002-.125L0 18.338l6.076.918A9.49 9.49 0 015.075 15z" fill="#F1AB41"/>
</svg>