<svg width="30" height="23" viewBox="0 0 30 23" fill="none" xmlns="http://www.w3.org/2000/svg">
<path d="M27.3633 0H2.63672C1.18465 0 0 1.18336 0 2.63672V20.2148C0 21.6633 1.17938 22.8516 2.63672 22.8516H27.3633C28.8117 22.8516 30 21.6722 30 20.2148V2.63672C30 1.18828 28.8206 0 27.3633 0ZM26.9992 1.75781L15.0559 13.7012L3.00932 1.75781H26.9992ZM1.75781 19.8509V2.99232L10.2234 11.3853L1.75781 19.8509ZM3.00076 21.0938L11.4717 12.6229L14.4398 15.5655C14.7834 15.9062 15.3379 15.9051 15.6801 15.5629L18.5742 12.6687L26.9992 21.0938H3.00076ZM28.2422 19.8508L19.8172 11.4258L28.2422 3.0007V19.8508Z" fill="#2476CC"/>
</svg>
