<svg width="15" height="20" viewBox="0 0 15 20" fill="none" xmlns="http://www.w3.org/2000/svg">
<path d="M14.8696 11.9565C14.8696 11.4339 14.6626 10.947 14.3035 10.5878C14.7096 10.1435 14.9165 9.5478 14.86 8.92782C14.7583 7.82259 13.7626 6.9565 12.5922 6.9565H7.22088C7.48697 6.14866 7.91305 4.66782 7.91305 3.47825C7.91305 1.59216 6.31045 0 5.30435 0C4.40088 0 3.75564 0.508696 3.72784 0.529566C3.62524 0.612188 3.56524 0.737406 3.56524 0.869553V3.81824L1.06089 9.24348L0.956543 9.29651V18.6165C1.66436 18.9504 2.56 19.1304 3.13045 19.1304H11.1122C12.0592 19.1304 12.8879 18.4922 13.0826 17.6113C13.1826 17.1583 13.1244 16.7017 12.9253 16.3052C13.5679 15.9817 14 15.32 14 14.5652C14 14.2574 13.9296 13.9626 13.7957 13.6957C14.4383 13.3722 14.8696 12.7104 14.8696 11.9565Z" fill="#808080"/>
</svg>
