<svg width="125" height="121" viewBox="0 0 125 121" fill="none" xmlns="http://www.w3.org/2000/svg">
<path d="M64.5161 118.296C64.5161 119.506 63.7097 120.514 62.5 120.514C61.2903 120.514 60.4839 119.506 60.4839 118.296V83.8205C60.4839 82.6108 61.2903 81.6028 62.5 81.6028C63.7097 81.6028 64.5161 82.6108 64.5161 83.8205V118.296Z" fill="#9B9B9B"/>
<path d="M125 58.2158C125 59.4255 124.194 60.232 122.984 60.232H88.7097C87.5 60.232 86.6936 59.4255 86.6936 58.2158C86.6936 57.0062 87.5 56.1997 88.7097 56.1997H122.984C124.194 56.1997 125 57.0062 125 58.2158Z" fill="#D6D6D6"/>
<path d="M38.3064 58.2158C38.3064 59.4255 37.5 60.232 36.2903 60.232H2.01613C0.806452 60.232 0 59.4255 0 58.2158C0 57.0062 0.806452 56.1997 2.01613 56.1997H36.2903C37.5 56.1997 38.3064 57.0062 38.3064 58.2158Z" fill="#515151"/>
<path d="M82.2581 41.2803C81.4516 42.0867 80.0403 42.0867 79.2339 41.2803C78.4274 40.4738 78.4274 39.0626 79.2339 38.2561L103.629 13.8609C104.435 13.0545 105.847 13.0545 106.653 13.8609C107.46 14.6674 107.46 16.0787 106.653 16.8851L82.2581 41.2803Z" fill="#EDEDED"/>
<path d="M21.3709 102.168C20.5645 102.974 19.1532 102.974 18.3468 102.168C17.5403 101.361 17.5403 99.9498 18.3468 99.1433L42.7419 74.7481C43.5484 73.9417 44.9597 73.9417 45.7661 74.7481C46.5726 75.5546 46.5726 76.9659 45.7661 77.7723L21.3709 102.168Z" fill="#7A7A7A"/>
<path d="M79.2339 77.7723C78.4274 76.9659 78.4274 75.5546 79.2339 74.7481C80.0403 73.9417 81.4516 73.9417 82.2581 74.7481L106.653 99.1433C107.46 99.9498 107.46 101.361 106.653 102.168C105.847 102.974 104.435 102.974 103.629 102.168L79.2339 77.7723Z" fill="#BFBFBF"/>
<path d="M18.3468 16.6835C17.5403 15.8771 17.5403 14.6674 18.3468 13.8609C19.1532 13.0545 20.5645 13.0545 21.3709 13.8609L45.7661 38.2561C46.5726 39.0626 46.5726 40.4738 45.7661 41.2803C44.9597 42.0867 43.5484 42.0867 42.7419 41.2803L18.3468 16.6835Z" fill="#2B2B2B"/>
<path d="M74.3952 34.8286C73.7903 36.0383 72.5806 36.4415 71.5726 36.0383C70.5645 35.6351 69.9597 34.4254 70.3629 33.2157L83.4677 1.36088C83.871 0.352818 85.0806 -0.252021 86.2903 0.151205C87.2984 0.554431 87.9032 1.76411 87.5 2.97379L74.3952 34.8286Z" fill="#F4F4F4"/>
<path d="M41.5323 114.667C41.129 115.675 39.9194 116.28 38.7097 115.877C37.7016 115.474 37.0968 114.264 37.5 113.054L50.6048 81.1995C51.0081 80.1914 52.2177 79.5866 53.4274 79.9898C54.4355 80.3931 55.0403 81.6027 54.6371 82.8124L41.5323 114.667Z" fill="#898989"/>
<path d="M85.6855 69.7076C84.6774 69.3044 84.0726 68.0947 84.4758 66.885C84.879 65.877 86.0887 65.2721 87.2984 65.6754L119.153 78.7802C120.161 79.1834 120.766 80.3931 120.363 81.6028C119.96 82.6109 118.75 83.2157 117.54 82.8125L85.6855 69.7076Z" fill="#CCCCCC"/>
<path d="M5.8468 36.8448C4.83873 36.4416 4.2339 35.2319 4.63712 34.0223C5.04035 33.0142 6.25002 32.4094 7.4597 32.8126L39.3145 46.119C40.3226 46.5223 40.9274 47.7319 40.5242 48.9416C40.121 49.9497 38.9113 50.5545 37.7016 50.1513L5.8468 36.8448Z" fill="#3F3F3F"/>
<path d="M87.0968 49.9496C86.0887 50.3529 84.879 49.9496 84.2742 48.74C83.871 47.7319 84.2742 46.3206 85.4839 45.9174L117.339 32.6109C118.347 32.2077 119.758 32.6109 120.161 33.8206C120.565 34.8287 120.161 36.24 118.952 36.6432L87.0968 49.9496Z" fill="#E2E2E2"/>
<path d="M7.66131 83.2158C6.65325 83.619 5.24196 83.2157 4.83873 82.0061C4.43551 80.998 4.83873 79.5867 6.04841 79.1835L37.9032 65.877C38.9113 65.4738 40.121 65.877 40.7258 67.0867C41.1291 68.0948 40.7258 69.5061 39.5162 69.9093L7.66131 83.2158Z" fill="#6D6D6D"/>
<path d="M70.5645 82.611C70.1613 81.6029 70.5645 80.3933 71.7742 79.7884C72.7823 79.3852 74.1936 79.7884 74.5968 80.9981L87.9032 112.853C88.3065 113.861 87.9032 115.272 86.6936 115.676C85.6855 116.079 84.2742 115.676 83.871 114.466L70.5645 82.611Z" fill="#ADADAD"/>
<path d="M37.2984 2.97379C36.8951 1.96573 37.2984 0.554435 38.508 0.15121C39.5161 -0.252016 40.9274 0.15121 41.3306 1.36089L54.4355 33.2157C54.8387 34.2238 54.4355 35.6351 53.2258 36.0383C52.2177 36.4415 50.8064 36.0383 50.4032 34.8286L37.2984 2.97379Z" fill="#0C0C0C"/>
</svg>
