<svg width="191" height="71" fill="none" xmlns="http://www.w3.org/2000/svg" >
	<path d="M36.47 38.219h-8.454L26.539 43h-6.592l9.387-25.594h5.8L44.593 43h-6.627l-1.494-4.781zm-6.978-4.764h5.502l-2.76-8.877-2.742 8.877zM53.047 43h-6.152V17.406h6.152V43zm13.799-9.035h-3.34V43h-6.17V17.406h10.072c3.035 0 5.408.674 7.12 2.022 1.71 1.347 2.566 3.252 2.566 5.713 0 1.78-.363 3.257-1.09 4.43-.715 1.171-1.84 2.12-3.375 2.847l5.344 10.318V43h-6.61l-4.517-9.035zm-3.34-4.764h3.902c1.172 0 2.051-.305 2.637-.914.598-.621.896-1.482.896-2.584 0-1.101-.298-1.963-.896-2.584-.598-.633-1.477-.95-2.637-.95h-3.902v7.032zm30.516 6.996c0-.902-.323-1.605-.967-2.11-.633-.503-1.752-1.025-3.358-1.564-1.605-.539-2.918-1.06-3.937-1.564-3.317-1.629-4.975-3.867-4.975-6.715 0-1.418.41-2.666 1.23-3.744.833-1.09 2.004-1.934 3.516-2.531 1.512-.61 3.211-.914 5.098-.914 1.84 0 3.486.328 4.94.984 1.464.656 2.6 1.594 3.41 2.813.808 1.207 1.212 2.59 1.212 4.148h-6.152c0-1.043-.322-1.852-.967-2.426-.633-.574-1.494-.861-2.584-.861-1.101 0-1.974.246-2.619.738-.633.48-.95 1.096-.95 1.846 0 .656.353 1.254 1.056 1.793.703.527 1.94 1.078 3.709 1.652 1.77.563 3.222 1.172 4.359 1.828 2.766 1.594 4.148 3.791 4.148 6.592 0 2.238-.843 3.996-2.53 5.273-1.688 1.278-4.003 1.917-6.944 1.917-2.074 0-3.955-.37-5.643-1.108-1.676-.75-2.941-1.77-3.797-3.059-.843-1.3-1.265-2.794-1.265-4.482h6.187c0 1.371.352 2.385 1.055 3.041.715.645 1.869.967 3.463.967 1.02 0 1.822-.217 2.408-.65.598-.446.897-1.067.897-1.864zm31.007-5.467c0 2.497-.463 4.705-1.388 6.627-.926 1.922-2.245 3.405-3.955 4.448-1.7 1.03-3.639 1.547-5.819 1.547-2.179 0-4.113-.498-5.801-1.495-1.687-1.007-3.005-2.443-3.955-4.306-.937-1.864-1.429-4.002-1.476-6.416v-1.442c0-2.508.457-4.716 1.371-6.627.926-1.921 2.244-3.404 3.955-4.447 1.723-1.043 3.68-1.564 5.871-1.564 2.168 0 4.102.515 5.801 1.547 1.699 1.03 3.017 2.502 3.955 4.412.949 1.898 1.43 4.078 1.441 6.539v1.177zm-6.275-1.072c0-2.543-.428-4.47-1.283-5.783-.844-1.324-2.057-1.986-3.639-1.986-3.094 0-4.728 2.32-4.904 6.96l-.018 1.881c0 2.508.416 4.436 1.248 5.784.832 1.347 2.069 2.021 3.709 2.021 1.559 0 2.76-.662 3.604-1.986.843-1.324 1.271-3.229 1.283-5.713v-1.178zm25.576 3.147h-9.949V43h-6.17V17.406h17.121v4.764h-10.951v5.889h9.949v4.746zm24.012-10.635h-7.682V43h-6.17V22.17h-7.541v-4.764h21.393v4.764zM126.004 54.203v8.376c0 .95-.202 1.773-.607 2.47a3.934 3.934 0 01-1.74 1.582c-.756.363-1.649.545-2.68.545-1.559 0-2.787-.404-3.683-1.213-.897-.809-1.354-1.916-1.371-3.322v-8.438h3.102v8.5c.036 1.4.686 2.1 1.952 2.1.638 0 1.122-.176 1.45-.528.328-.351.492-.923.492-1.714v-8.358h3.085zm6.284 8.033l-1.266 1.389V67h-3.084V54.203h3.084v5.643l1.073-1.626 2.759-4.017h3.815l-4.324 5.66L138.669 67h-3.656l-2.725-4.764zm11.918.246h-1.67V67h-3.085V54.203h5.036c1.518 0 2.704.337 3.56 1.01.855.675 1.283 1.627 1.283 2.857 0 .89-.182 1.63-.545 2.215-.357.586-.92 1.06-1.687 1.424l2.672 5.16V67h-3.305l-2.259-4.518zm-1.67-2.381h1.951c.586 0 1.026-.153 1.319-.457.298-.311.448-.742.448-1.292 0-.551-.15-.982-.448-1.292-.299-.317-.739-.475-1.319-.475h-1.951v3.516zm15.926 4.508h-4.228L153.496 67H150.2l4.694-12.797h2.9L162.522 67h-3.313l-.747-2.39zm-3.489-2.381h2.751l-1.38-4.439-1.371 4.438zM166.75 67h-3.076V54.203h3.076V67zm12.832 0h-3.067l-4.536-7.963V67h-3.084V54.203h3.084l4.527 7.963v-7.963h3.076V67zm9.888-5.423h-4.852v3.05h5.731V67h-8.816V54.203h8.833v2.382h-5.748v2.698h4.852v2.294zM171 0h20v5h-20z"/>
	<path d="M186 20V0h5v20zM20 63H0v-5h20z"/>
	<path d="M5 43v20H0V43z"/>
</svg>