<svg width="30" height="30" viewBox="0 0 30 30" fill="none" xmlns="http://www.w3.org/2000/svg">
<path d="M27.5927 19.6916C25.756 19.6916 23.9526 19.4043 22.2436 18.8395C21.4062 18.5539 20.3767 18.8159 19.8657 19.3409L16.4925 21.8873C12.5805 19.7991 10.1708 17.3902 8.11115 13.5076L10.5826 10.2223C11.2247 9.58102 11.455 8.6443 11.1791 7.76539C10.6119 6.04742 10.3238 4.24484 10.3238 2.40734C10.3239 1.07992 9.24396 0 7.91662 0H2.40726C1.07992 0 0 1.07992 0 2.40727C0 17.6221 12.3779 30 27.5927 30C28.9201 30 30 28.9201 30 27.5927V22.0988C29.9999 20.7715 28.92 19.6916 27.5927 19.6916Z" fill="#2476CC"/>
</svg>
